<svg xmlns="http://www.w3.org/2000/svg" xmlns:xlink="http://www.w3.org/1999/xlink" version="1.1" id="Layer_1" x="0px" y="0px" width="78.125px" height="100px" viewBox="0 0 100 128.814" enable-background="new 0 0 100 128.814" xml:space="preserve">
<g>
	<path fill="none" d="M50.302,77.047c10.789,0,19.671-11.91,20.82-27.221c0.142-0.988,0.223-2,0.236-3.029l-3.37,3.872   c1.857-4.113-4.757-14.584-4.757-14.584c-11.15,8.065-27.724,0-27.724,0c-5.001,1.974-2.633,16.042-2.633,16.042   c-1.249-0.87-2.394-1.326-3.328-1.559C30.925,65.519,39.692,77.047,50.302,77.047z"/>
	<path fill="none" d="M69.28,77.217c0.003-0.009,0.003-0.018,0.006-0.021C69.286,77.2,69.28,77.211,69.28,77.217   c-0.056,0.549-0.187,1.089-0.391,1.615C69.093,78.306,69.224,77.766,69.28,77.217z"/>
	<path d="M26.592,49.701c0.016,0.229,0.036,0.451,0.057,0.676c1.514,17.118,11.525,30.338,23.654,30.338   c12.29,0,22.406-13.566,23.715-31.006c0.182-1.251,0.276-2.535,0.276-3.842c0-1.302-0.095-2.586-0.276-3.839   c-1.759-12.122-11.706-21.411-23.715-21.411c-12.009,0-21.958,9.295-23.71,21.421c-0.182,1.251-0.275,2.529-0.275,3.829   c0,0.531,0.021,1.058,0.05,1.579C26.41,48.206,26.485,48.959,26.592,49.701z M35.508,36.086c0,0,16.574,8.065,27.724,0   c0,0,6.614,10.471,4.757,14.584l3.37-3.872c-0.014,1.028-0.095,2.041-0.236,3.029c-1.149,15.311-10.031,27.221-20.82,27.221   c-10.61,0-19.377-11.528-20.755-26.479c0.934,0.233,2.079,0.689,3.328,1.559C32.875,52.127,30.507,38.06,35.508,36.086z"/>
	<path d="M72.285,77.144c-0.97-0.18-1.949-0.319-2.948-0.408l0,0h-0.003c0,0.041-0.005,0.086-0.01,0.129   c-0.006,0.11-0.02,0.229-0.044,0.353c0-0.006,0.006-0.018,0.006-0.021c-0.003,0.004-0.003,0.013-0.006,0.021   c-0.056,0.549-0.187,1.089-0.391,1.615c0.204-0.526,0.335-1.066,0.391-1.615c-0.12,0.74-0.472,1.696-0.998,2.808   c-2.755,5.828-10.29,15.996-14.954,22.063l-0.886-12.629c1.208-0.622,2.253-1.619,2.961-2.786c0.588-0.961,0.95-2.04,0.95-3.131   c0,0-3.275,1.45-6.618,1.45c-3.341,0-6.616-1.45-6.616-1.45c0,1.01,0.312,2.006,0.82,2.907c0.706,1.265,1.807,2.35,3.09,3.01   l-0.907,12.962c-4.39-6.241-11.841-17.23-14.146-23.032l0,0c-0.327-0.824-0.547-1.538-0.643-2.126v-0.003   c-0.022-0.137-0.038-0.266-0.044-0.387c0-0.003,0-0.005,0-0.008c-0.004-0.043-0.011-0.088-0.012-0.129c0,0-0.001,0-0.002,0   c-0.472,0.043-0.94,0.1-1.404,0.161c-0.028,0.003-0.054,0.006-0.081,0.011C14.542,79.031,2.806,92.123,2.806,107.957   c0,17.314,14.038,17.274,31.354,17.274h32.288c17.319,0,31.358,0.04,31.358-17.274C97.806,92.632,86.812,79.876,72.285,77.144z"/>
</g>
<g>
	<path fill="#000000" d="M51.735,36.82c-0.313,0.314-0.822,0.314-1.134,0L31.325,25.49l-0.642,8.202l16.709,7.473   c1.802,1.801,5.749,1.801,7.55,0l15.623-6.844l-0.801-8.041L51.735,36.82z"/>
	<path fill="#000000" d="M83.591,17.497L51.942,4.33c-0.37-0.372-0.974-0.372-1.347,0L18.947,17.497   c-0.373,0.371-0.373,0.975,0,1.348l2.358,1.364l-0.149,2.085c-0.809,0.136-1.428,0.838-1.428,1.688c0,0.763,0.5,1.41,1.191,1.632   l-1.381,19.335l1.906,5.717l1.906-5.717l-1.382-19.335c0.69-0.224,1.19-0.869,1.19-1.632c0-0.85-0.617-1.552-1.427-1.688   l-0.138-1.918l3.304,1.913l0.133,0.077l25.564,14.792c0.372,0.373,0.975,0.373,1.347,0L76.213,23.11l1.426-0.822l5.95-3.443   C83.964,18.472,83.964,17.869,83.591,17.497z"/>
</g>
</svg>