<svg fill="#000000" xmlns="http://www.w3.org/2000/svg" xmlns:xlink="http://www.w3.org/1999/xlink" version="1.1" x="0px" y="0px" viewBox="0 0 50.4 50.4" enable-background="new 0 0 50.4 50.4" xml:space="preserve"><g><path d="M45.948,28.326V15.422c0-0.83-0.672-1.502-1.502-1.502c-0.831,0-1.503,0.672-1.503,1.502v1.357l-2.518-7.141   c-0.291-0.82-1.187-1.252-2.013-0.962c-0.821,0.289-1.251,1.189-0.962,2.013l2.535,7.112L34.317,9.35   c-0.521-0.803-1.591-1.024-2.391-0.509c-0.801,0.521-1.027,1.59-0.509,2.39l4.459,6.864l5.545,3.544   c0.279,0.178,0.361,0.55,0.183,0.83c-0.114,0.179-0.309,0.276-0.506,0.276c-0.112,0-0.224-0.03-0.325-0.095l-5.881-3.726   c-1.874-1.298-4.167-2.181-6.702-2.442c-0.977-0.093-1.841,0.609-1.942,1.579c-0.1,0.972,0.607,1.842,1.578,1.942   c4.321,0.444,7.716,3.13,8.259,6.533c0.587,3.676-1.603,8.229-5.679,8.881c-0.241,0.038-0.502,0.089-0.773,0.142   c-0.501,0.094-1.187,0.235-1.511,0.194c-0.979-0.079-1.838,0.621-1.932,1.594c-0.092,0.972,0.621,1.837,1.594,1.931   c0.146,0.013,0.295,0.021,0.444,0.021h11.645l0.651,2.539h9.683L45.948,28.326z"/><path d="M4.621,28.326V15.422c0-0.83,0.672-1.502,1.502-1.502c0.83,0,1.502,0.672,1.502,1.502v1.357l2.518-7.141   c0.29-0.82,1.188-1.252,2.013-0.962c0.821,0.289,1.253,1.189,0.962,2.013l-2.535,7.112l5.669-8.452   c0.522-0.803,1.59-1.024,2.391-0.509c0.801,0.521,1.028,1.59,0.508,2.39l-4.457,6.864l-5.545,3.544   c-0.278,0.178-0.361,0.55-0.182,0.83c0.114,0.179,0.308,0.276,0.505,0.276c0.111,0,0.223-0.03,0.325-0.095l5.88-3.726   c1.875-1.298,4.166-2.181,6.702-2.442c0.977-0.093,1.842,0.609,1.942,1.579c0.1,0.972-0.607,1.842-1.578,1.942   c-4.319,0.444-7.714,3.13-8.257,6.533c-0.587,3.676,1.602,8.229,5.678,8.881c0.24,0.038,0.501,0.089,0.774,0.142   c0.499,0.094,1.186,0.235,1.511,0.194c0.98-0.079,1.836,0.621,1.931,1.594c0.091,0.972-0.622,1.837-1.593,1.931   c-0.147,0.013-0.297,0.021-0.446,0.021H10.698l-0.652,2.539H0.363L4.621,28.326z"/></g></svg>