<svg xmlns="http://www.w3.org/2000/svg" xmlns:xlink="http://www.w3.org/1999/xlink" width="1200" height="1200" viewBox="0 0 1200 1200"><g><g transform="translate(600 600) scale(0.69 0.69) rotate(0) translate(-600 -600)" style="fill:#1A1A1A;"><svg fill="#1A1A1A" xmlns="http://www.w3.org/2000/svg" xmlns:xlink="http://www.w3.org/1999/xlink" version="1.1" x="0px" y="0px" viewBox="0 0 100 100" enable-background="new 0 0 100 100" xml:space="preserve"><g><g><path d="M15.392,56.686c4.428-0.016,8.013-3.596,8.04-8.03c-0.027-4.434-3.613-8.027-8.04-8.034    c-4.443,0.006-8.031,3.601-8.031,8.034C7.357,53.092,10.949,56.673,15.392,56.686L15.392,56.686z"></path><polygon points="33.611,95.781 98.905,95.781 98.905,87.93 37.552,87.93 6.435,58.992 0.772,65.077   "></polygon><path d="M81.619,82.997c-1.13,0-2.276-0.311-3.312-0.986l-13.9-9.038l-18.604,9.382c-2.206,1.107-4.859,0.778-6.723-0.839    l-16.7-14.462c-2.864-2.569-3.661-6.77-1.465-9.309c2.203-2.541,6.39-3.551,9.834-0.505l13.827,11.969l17.475-8.668    c1.936-0.973,4.24-0.846,6.059,0.333l16.832,10.948c2.812,1.826,3.606,5.604,1.778,8.409    C85.556,82.023,83.611,82.997,81.619,82.997L81.619,82.997z"></path></g></g><g><g><path d="M73.584,3.359c4.637,0,8.407,3.761,8.407,8.403c0,4.642-3.767,8.393-8.407,8.393c-4.629,0-8.392-3.751-8.392-8.393    C65.192,7.12,68.955,3.359,73.584,3.359z"></path><path d="M59.29,54.511V33.94h3.221l-0.002,20.57h22.175l0.007-20.57h3.205v20.57h7.18V33.242c0-6.173-5.299-11.111-11.361-11.111    H63.47c-6.06,0-11.359,4.938-11.359,11.111v21.269H59.29z"></path></g><polygon points="39.698,12.933 39.698,4.349 31.112,4.349 31.112,12.933 22.525,12.933 22.525,21.521 31.112,21.521 31.112,30.106    39.698,30.106 39.698,21.521 48.285,21.521 48.285,12.933  "></polygon></g></svg></g></g></svg>