<svg fill="#000000" xmlns="http://www.w3.org/2000/svg" xmlns:xlink="http://www.w3.org/1999/xlink" version="1.1" x="0px" y="0px" viewBox="0 0 512 512" enable-background="new 0 0 512 512" xml:space="preserve"><g><path d="M460.21,407.683l-1.812-0.514c-26.469-7.109-35.437-13.938-47.218-18.422c-7.78-2.969-14.53-5.781-20.312-8.438   l-35.469-35.094l-0.188-26.045c2.094-2.797,4.125-5.672,6.125-8.609c25.688-12.594,29.188-32.312,24.094-48.656   c5.156-15.663,8.125-32.061,8.125-48.701c0-15.07-1.781-29.265-5.062-42.468l2.719-2.016c3.438-2.602,4.969-7.016,3.906-11.164   c14.155-13.593,21.687-29.187,21.687-45.67c0-13.461-4.688-27.765-13.53-41.366c-8.344-12.812-20.406-25.07-34.906-35.46   c-31.562-22.601-71.467-35.054-112.38-35.054c-40.89,0-80.795,12.453-112.372,35.054c-14.5,10.391-26.578,22.648-34.905,35.46   c-8.844,13.601-13.516,27.905-13.516,41.366c0,17.007,8,33.069,23.03,46.967c-0.469,3.75,1.062,7.539,4.172,9.867l1.344,1   c-3.438,13.492-5.297,28.023-5.297,43.483c0,16.64,2.953,33.038,8.109,48.701c-5.109,16.344-1.594,36.078,24.109,48.656   c1.969,2.938,4.016,5.812,6.108,8.609l-0.187,27.436l-32.828,32.469c-6.375,3.016-13.937,6.234-22.952,9.672   c-11.781,4.484-20.75,11.312-47.218,18.422l-1.812,0.514c-24.093,7.969-40.296,30.312-40.296,55.531v48.78h244.51h244.533v-48.78   C500.521,437.995,484.304,415.651,460.21,407.683z M341.65,416.604l3.999,16.469l-59.154,36.484l58.936-104.186l22.969,22.703   l-22.875,17.547C342.182,408.198,340.65,412.495,341.65,416.604z M167.85,405.622l-22.858-17.547l22.968-22.703l59.093,104.217   l-59.327-36.516l4-16.469C172.725,412.495,171.193,408.198,167.85,405.622z M156.74,285.468c7.125,3.844,14.672,5.812,22.438,5.812   c18.375,0,32.952-10.812,44.655-19.484c3.875-2.883,7.531-5.594,10.734-7.492c1.828-1.086,3.031-1.609,3.734-1.867   c0.531,0.445,1.359,1.242,2.452,2.625c5.953,7.438,4.984,12.125,3.25,15.734c-4.655,9.703-21.312,20.188-40.062,20.188   c-1.406,0-2.812-0.062-4.156-0.188c-24.796-2.281-37.812-7.766-44.373-11.984c-7.25-4.656-8.719-9-9.172-11   C149.101,280.687,152.601,283.249,156.74,285.468z M365.743,277.812c-0.438,2-1.938,6.344-9.188,11   c-6.531,4.219-19.562,9.703-44.342,11.984c-1.375,0.125-2.781,0.188-4.188,0.188c-18.75,0-35.375-10.484-40.055-20.188   c-1.734-3.609-2.703-8.297,3.25-15.734c1.117-1.383,1.93-2.18,2.461-2.625c0.719,0.258,1.906,0.781,3.719,1.867   c3.219,1.898,6.875,4.609,10.75,7.492c11.719,8.672,26.281,19.484,44.655,19.484c7.75,0,15.312-1.969,22.437-5.812   C359.368,283.249,362.899,280.687,365.743,277.812z M235.364,398.528l-16.922,12.623l-22.187-39.107   C209.146,382.81,223.489,392.341,235.364,398.528z M256.801,409.151l27.694,20.656l-27.71,48.969l-27.733-48.938L256.801,409.151z    M295.089,411.089l-17.531-13.061c12.562-6.656,27.719-16.906,40.938-28.344L295.089,411.089z M308.026,322.312   c2.062,0,4.094-0.094,6.125-0.281c5.219-0.469,10.093-1.094,14.655-1.844c0.25,1.406,0.312,2.406,0.312,3.047   c-0.062,1.139-1.531,5.607-7.405,12.951c-5.562,6.938-13.562,14.656-23.094,22.281c-8.75,7.016-18.5,13.656-27.398,18.719   c-7.828,4.438-12.89,6.438-15.233,7.156c-2.328-0.719-7.391-2.719-15.219-7.156c-8.921-5.062-18.655-11.703-27.405-18.719   c-9.547-7.625-17.515-15.344-23.077-22.281c-5.875-7.344-7.359-11.812-7.438-12.951c0-0.641,0.078-1.641,0.328-3.047   c4.562,0.75,9.438,1.375,14.656,1.844c2.03,0.188,4.062,0.281,6.108,0.281c19.984,0,40.171-8.688,52.046-21.719   C267.878,313.624,288.058,322.312,308.026,322.312z M175.021,181.525l-14.219-10.671h192.003l-14.218,10.671H175.021z    M147.116,149.526c2.672-3.148,6.188-6.602,10.812-10.078c14.797-11.148,43.812-24.437,98.061-24.437   c54.351,0,83.818,13.344,98.974,24.531c4.656,3.445,8.25,6.859,11,9.984H147.116z M256.801,74.855   c-5.875,0-10.672-4.781-10.672-10.664s4.797-10.664,10.672-10.664c5.874,0,10.671,4.781,10.671,10.664   S262.675,74.855,256.801,74.855z M156.038,52.411c27.577-19.75,64.014-31.069,99.95-31.069c35.944,0,72.381,11.32,99.942,31.069   c24.75,17.719,39.531,39.953,39.531,59.476c0,10.101-4.656,18.898-11.219,26.28c-14.281-17.734-46.312-41.64-115.631-44.241   c11.82-4.711,20.195-16.258,20.195-29.734c0-17.648-14.375-32-32.007-32c-17.64,0-31.999,14.352-31.999,32   c0,13.414,8.297,24.921,20.03,29.671c-71.061,2.343-102.747,27.015-116.466,44.999c-6.875-7.515-11.844-16.554-11.844-26.976   C116.522,92.363,131.288,70.129,156.038,52.411z M165.068,200.72c1.844,1.383,4.094,2.133,6.406,2.133h170.645   c2.312,0,4.562-0.75,6.405-2.133l21.188-15.89c1.656,9.094,2.5,18.57,2.5,28.375c0,8.203-0.875,16.593-2.562,25.023   c-3.781-2.977-7.594-4.703-10.844-4.703c-0.094,0-0.188,0-0.281,0c-16.562,0.508-24.53,17.695-24.53,17.695   c2.469-0.758,4.875-1.102,7.156-1.102c11.405,0,18.405,8.796,3.968,16.577c-4.218,2.281-8.312,3.242-12.312,3.242   c-21.905,0-40.655-29.046-59.718-29.046c-5.633,0-11.305,2.547-17.101,9.148c-5.781-6.602-11.453-9.148-17.093-9.148   c-19.078,0-37.812,29.046-59.718,29.046c-4,0-8.094-0.961-12.312-3.242c-14.421-7.781-7.453-16.577,3.984-16.577   c2.25,0,4.688,0.344,7.156,1.102c0,0-7.969-17.187-24.546-17.695c-0.094,0-0.188,0-0.281,0c-3.25,0-7.062,1.727-10.828,4.711   c-1.703-8.438-2.578-16.828-2.578-25.031c0-10.188,0.906-20.023,2.688-29.445L165.068,200.72z M32.806,463.214   c0-15.906,10.156-29.984,25.328-35.156l1.188-0.344c19.952-5.375,30.968-10.641,39.812-14.875c3.422-1.656,6.391-3.062,9.266-4.156   c5.797-2.217,12.14-4.748,18.546-7.561l22.406,17.201l-4.188,17.25c-1.078,4.484,0.844,9.172,4.781,11.609l70.654,43.469H32.806   V463.214z M479.179,490.651H292.933l70.529-43.484c3.906-2.422,5.844-7.109,4.75-11.594l-4.188-17.25l21.906-16.826   c6.094,2.688,12.125,5.078,17.688,7.186c2.844,1.094,5.812,2.5,9.218,4.156c8.875,4.234,19.874,9.5,39.812,14.875l1.219,0.344   c15.156,5.172,25.312,19.25,25.312,35.156V490.651z"/><path d="M256.801,445.526c5.89,0,10.671-4.766,10.671-10.656s-4.781-10.672-10.671-10.672c-5.891,0-10.672,4.781-10.672,10.672   S250.91,445.526,256.801,445.526z"/></g></svg>