<svg fill="#000000" xmlns="http://www.w3.org/2000/svg" xmlns:xlink="http://www.w3.org/1999/xlink" version="1.1" x="0px" y="0px" viewBox="0 0 100 100" enable-background="new 0 0 100 100" xml:space="preserve"><path d="M19.848,40.866c-0.138-3.748,2.885-11.376,11.578-11.686c3.3-0.117,8.994-0.331,12.13,3.307s6.167,4.421,9.165,4.311  l0.242,6.588c-2.997,0.125-8.993,0.346-12.129-3.292c-3.136-3.638-5.888-5.049-8.886-4.939c-5.892,0.217-6.104,5.49-6.104,5.49  L19.848,40.866z M63.386,43.845c-2.753,0-4.688-1.86-4.688-4.465c0-2.605,1.935-4.39,4.688-4.39c2.605,0,4.614,1.711,4.614,4.465  C68,42.059,65.991,43.845,63.386,43.845z"/><g><path d="M50,95c-6.074,0-11.967-1.19-17.517-3.538c-5.359-2.267-10.171-5.511-14.303-9.643c-4.132-4.132-7.376-8.944-9.643-14.303   C6.19,61.967,5,56.074,5,50s1.19-11.967,3.538-17.517c2.267-5.359,5.511-10.171,9.643-14.303c4.132-4.132,8.944-7.376,14.303-9.643   C38.033,6.19,43.926,5,50,5s11.967,1.19,17.517,3.538c5.359,2.267,10.171,5.511,14.303,9.643c4.132,4.132,7.376,8.944,9.643,14.303   C93.81,38.033,95,43.926,95,50s-1.19,11.967-3.538,17.517c-2.267,5.359-5.511,10.171-9.643,14.303   c-4.132,4.132-8.944,7.376-14.303,9.643C61.967,93.81,56.074,95,50,95z M50,11c-5.266,0-10.373,1.031-15.18,3.064   c-4.644,1.964-8.815,4.777-12.398,8.359c-3.583,3.583-6.395,7.754-8.359,12.398C12.031,39.627,11,44.734,11,50   s1.031,10.373,3.064,15.18c1.964,4.644,4.777,8.815,8.359,12.398c3.583,3.583,7.754,6.395,12.398,8.359   C39.627,87.969,44.734,89,50,89s10.373-1.031,15.18-3.064c4.644-1.964,8.815-4.777,12.398-8.359   c3.583-3.583,6.395-7.754,8.359-12.398C87.969,60.373,89,55.266,89,50s-1.031-10.373-3.064-15.18   c-1.964-4.644-4.777-8.815-8.359-12.398c-3.583-3.583-7.754-6.395-12.398-8.359C60.373,12.031,55.266,11,50,11z"/></g><path d="M25.906,64.549c4.219,0.414,8.297,0.828,12.438,1.242c0,0,33.995,1.992,35.711,2.164c0.889,0.089,1.903-0.431,2.511-1.039  c0.663-0.663,1.04-1.572,1.04-2.509c0-0.937-0.376-1.847-1.039-2.509c-0.716-0.716-1.534-0.942-2.509-1.039  c-10.761-1.076-21.522-2.152-32.283-3.228c-5.188-0.519-10.376-1.038-15.564-1.556c-0.091-0.009-0.181-0.018-0.272-0.027  c-0.889-0.089-1.901,0.431-2.509,1.039c-0.663,0.663-1.039,1.572-1.039,2.509c0,0.937,0.36,3.253,1.022,3.916  C24.13,64.226,24.969,64.452,25.906,64.549L25.906,64.549z"/></svg>